<mxfile host="app.diagrams.net" agent="Mozilla/5.0 (Macintosh; Intel Mac OS X 10_15_7) AppleWebKit/537.36 (KHTML, like Gecko) Chrome/138.0.0.0 Safari/537.36" version="28.2.3" pages="9">
  <diagram name="Page-1" id="C9C86ICiYXPJqEdUbb66">
    <mxGraphModel dx="599" dy="337" grid="1" gridSize="10" guides="1" tooltips="1" connect="1" arrows="1" fold="1" page="1" pageScale="1" pageWidth="850" pageHeight="1100" math="0" shadow="0">
      <root>
        <mxCell id="0" />
        <mxCell id="1" parent="0" />
        <mxCell id="BUMSwfdSAV-_3AB0RJ5o-3" value="" style="edgeStyle=orthogonalEdgeStyle;rounded=0;orthogonalLoop=1;jettySize=auto;html=1;" edge="1" parent="1" source="BUMSwfdSAV-_3AB0RJ5o-1" target="BUMSwfdSAV-_3AB0RJ5o-2">
          <mxGeometry relative="1" as="geometry" />
        </mxCell>
        <mxCell id="BUMSwfdSAV-_3AB0RJ5o-1" value="ng serve / npm start" style="text;html=1;align=center;verticalAlign=middle;resizable=0;points=[];autosize=1;strokeColor=none;fillColor=none;" vertex="1" parent="1">
          <mxGeometry x="130" y="155" width="130" height="30" as="geometry" />
        </mxCell>
        <mxCell id="BUMSwfdSAV-_3AB0RJ5o-5" value="" style="edgeStyle=orthogonalEdgeStyle;rounded=0;orthogonalLoop=1;jettySize=auto;html=1;" edge="1" parent="1" source="BUMSwfdSAV-_3AB0RJ5o-2" target="BUMSwfdSAV-_3AB0RJ5o-4">
          <mxGeometry relative="1" as="geometry" />
        </mxCell>
        <mxCell id="BUMSwfdSAV-_3AB0RJ5o-2" value="starts dev server&lt;div&gt;localhost:4200&lt;/div&gt;" style="text;html=1;align=center;verticalAlign=middle;resizable=0;points=[];autosize=1;strokeColor=none;fillColor=none;" vertex="1" parent="1">
          <mxGeometry x="350" y="150" width="110" height="40" as="geometry" />
        </mxCell>
        <mxCell id="BUMSwfdSAV-_3AB0RJ5o-7" value="" style="edgeStyle=orthogonalEdgeStyle;rounded=0;orthogonalLoop=1;jettySize=auto;html=1;" edge="1" parent="1" source="BUMSwfdSAV-_3AB0RJ5o-4" target="BUMSwfdSAV-_3AB0RJ5o-6">
          <mxGeometry relative="1" as="geometry" />
        </mxCell>
        <mxCell id="BUMSwfdSAV-_3AB0RJ5o-4" value="index.html&lt;div&gt;&amp;lt;app-root&amp;gt;&lt;/div&gt;" style="text;html=1;align=center;verticalAlign=middle;resizable=0;points=[];autosize=1;strokeColor=none;fillColor=none;" vertex="1" parent="1">
          <mxGeometry x="555" y="150" width="80" height="40" as="geometry" />
        </mxCell>
        <mxCell id="BUMSwfdSAV-_3AB0RJ5o-9" value="" style="edgeStyle=orthogonalEdgeStyle;rounded=0;orthogonalLoop=1;jettySize=auto;html=1;" edge="1" parent="1" source="BUMSwfdSAV-_3AB0RJ5o-6" target="BUMSwfdSAV-_3AB0RJ5o-8">
          <mxGeometry relative="1" as="geometry" />
        </mxCell>
        <mxCell id="BUMSwfdSAV-_3AB0RJ5o-6" value="main.ts&lt;div&gt;(bootstrap module)&lt;/div&gt;" style="text;html=1;align=center;verticalAlign=middle;resizable=0;points=[];autosize=1;strokeColor=none;fillColor=none;" vertex="1" parent="1">
          <mxGeometry x="535" y="270" width="120" height="40" as="geometry" />
        </mxCell>
        <mxCell id="BUMSwfdSAV-_3AB0RJ5o-11" value="" style="edgeStyle=orthogonalEdgeStyle;rounded=0;orthogonalLoop=1;jettySize=auto;html=1;" edge="1" parent="1" source="BUMSwfdSAV-_3AB0RJ5o-8" target="BUMSwfdSAV-_3AB0RJ5o-10">
          <mxGeometry relative="1" as="geometry" />
        </mxCell>
        <mxCell id="BUMSwfdSAV-_3AB0RJ5o-8" value="AppModule&lt;div&gt;(Root Module)&lt;/div&gt;" style="text;html=1;align=center;verticalAlign=middle;resizable=0;points=[];autosize=1;strokeColor=none;fillColor=none;" vertex="1" parent="1">
          <mxGeometry x="345" y="270" width="100" height="40" as="geometry" />
        </mxCell>
        <mxCell id="BUMSwfdSAV-_3AB0RJ5o-10" value="AppComponent&lt;div&gt;(Root Component)&lt;/div&gt;&lt;div&gt;&lt;br&gt;&lt;/div&gt;&lt;div&gt;html&lt;/div&gt;&lt;div&gt;css,&lt;/div&gt;&lt;div&gt;ts,&lt;/div&gt;&lt;div&gt;spec&lt;/div&gt;&lt;div&gt;&lt;br&gt;&lt;/div&gt;" style="text;html=1;align=center;verticalAlign=middle;resizable=0;points=[];autosize=1;strokeColor=none;fillColor=none;" vertex="1" parent="1">
          <mxGeometry x="155" y="225" width="120" height="130" as="geometry" />
        </mxCell>
        <mxCell id="BUMSwfdSAV-_3AB0RJ5o-12" value="Angular Application Bootstrap Process" style="text;strokeColor=none;fillColor=none;html=1;fontSize=24;fontStyle=1;verticalAlign=middle;align=center;" vertex="1" parent="1">
          <mxGeometry x="340" y="80" width="100" height="40" as="geometry" />
        </mxCell>
      </root>
    </mxGraphModel>
  </diagram>
  <diagram id="l7W_xQcOE4D41UAbRbyT" name="Page-2">
    <mxGraphModel dx="668" dy="376" grid="1" gridSize="10" guides="1" tooltips="1" connect="1" arrows="1" fold="1" page="1" pageScale="1" pageWidth="850" pageHeight="1100" math="0" shadow="0">
      <root>
        <mxCell id="0" />
        <mxCell id="1" parent="0" />
        <mxCell id="t--C47-ZsDoRhNLkjjPz-1" value="Data Binding" style="text;strokeColor=none;fillColor=none;html=1;fontSize=24;fontStyle=1;verticalAlign=middle;align=center;" vertex="1" parent="1">
          <mxGeometry x="375" y="20" width="100" height="40" as="geometry" />
        </mxCell>
        <mxCell id="t--C47-ZsDoRhNLkjjPz-2" value="TypeScript Class" style="rounded=0;whiteSpace=wrap;html=1;" vertex="1" parent="1">
          <mxGeometry x="210" y="162" width="120" height="60" as="geometry" />
        </mxCell>
        <mxCell id="t--C47-ZsDoRhNLkjjPz-8" style="edgeStyle=orthogonalEdgeStyle;rounded=0;orthogonalLoop=1;jettySize=auto;html=1;exitX=0.5;exitY=1;exitDx=0;exitDy=0;entryX=0.5;entryY=1;entryDx=0;entryDy=0;" edge="1" parent="1" source="t--C47-ZsDoRhNLkjjPz-3" target="t--C47-ZsDoRhNLkjjPz-2">
          <mxGeometry relative="1" as="geometry">
            <Array as="points">
              <mxPoint x="600" y="282" />
              <mxPoint x="270" y="282" />
            </Array>
          </mxGeometry>
        </mxCell>
        <mxCell id="t--C47-ZsDoRhNLkjjPz-3" value="Component Template / View" style="rounded=0;whiteSpace=wrap;html=1;" vertex="1" parent="1">
          <mxGeometry x="540" y="162" width="120" height="60" as="geometry" />
        </mxCell>
        <mxCell id="t--C47-ZsDoRhNLkjjPz-4" value="username = &quot;Monica&quot;" style="text;html=1;align=center;verticalAlign=middle;resizable=0;points=[];autosize=1;strokeColor=none;fillColor=none;" vertex="1" parent="1">
          <mxGeometry x="80" y="170" width="140" height="30" as="geometry" />
        </mxCell>
        <mxCell id="t--C47-ZsDoRhNLkjjPz-6" style="edgeStyle=orthogonalEdgeStyle;rounded=0;orthogonalLoop=1;jettySize=auto;html=1;exitX=0.5;exitY=0;exitDx=0;exitDy=0;entryX=0.597;entryY=-0.002;entryDx=0;entryDy=0;entryPerimeter=0;" edge="1" parent="1" source="t--C47-ZsDoRhNLkjjPz-2" target="t--C47-ZsDoRhNLkjjPz-3">
          <mxGeometry relative="1" as="geometry">
            <Array as="points">
              <mxPoint x="270" y="102" />
              <mxPoint x="612" y="102" />
            </Array>
          </mxGeometry>
        </mxCell>
        <mxCell id="t--C47-ZsDoRhNLkjjPz-7" value="[ Property Binding ] / {{ String Interpolation }}" style="text;html=1;align=center;verticalAlign=middle;resizable=0;points=[];autosize=1;strokeColor=none;fillColor=none;" vertex="1" parent="1">
          <mxGeometry x="290" y="100" width="260" height="30" as="geometry" />
        </mxCell>
        <mxCell id="t--C47-ZsDoRhNLkjjPz-9" value="( Event Binding )" style="text;html=1;align=center;verticalAlign=middle;resizable=0;points=[];autosize=1;strokeColor=none;fillColor=none;" vertex="1" parent="1">
          <mxGeometry x="390" y="252" width="110" height="30" as="geometry" />
        </mxCell>
        <mxCell id="t--C47-ZsDoRhNLkjjPz-10" value="2 way data binding = PB + EB&lt;div&gt;Banana in the Box = [ ( ngModel ) ]&lt;/div&gt;" style="text;html=1;align=center;verticalAlign=middle;resizable=0;points=[];autosize=1;strokeColor=none;fillColor=none;" vertex="1" parent="1">
          <mxGeometry x="185" y="303" width="210" height="40" as="geometry" />
        </mxCell>
      </root>
    </mxGraphModel>
  </diagram>
  <diagram id="Zr69eRBPpiTz3g2hn9H6" name="Page-3">
    <mxGraphModel dx="723" dy="408" grid="1" gridSize="10" guides="1" tooltips="1" connect="1" arrows="1" fold="1" page="1" pageScale="1" pageWidth="850" pageHeight="1100" math="0" shadow="0">
      <root>
        <mxCell id="0" />
        <mxCell id="1" parent="0" />
        <mxCell id="BrYFn9-QAHqjKM3JLirK-1" value="Nested Component Communication" style="text;strokeColor=none;fillColor=none;html=1;fontSize=24;fontStyle=1;verticalAlign=middle;align=center;" vertex="1" parent="1">
          <mxGeometry x="375" y="40" width="100" height="40" as="geometry" />
        </mxCell>
        <mxCell id="BrYFn9-QAHqjKM3JLirK-4" style="edgeStyle=orthogonalEdgeStyle;rounded=0;orthogonalLoop=1;jettySize=auto;html=1;exitX=0.25;exitY=1;exitDx=0;exitDy=0;entryX=0.25;entryY=0;entryDx=0;entryDy=0;" edge="1" parent="1" source="BrYFn9-QAHqjKM3JLirK-2" target="BrYFn9-QAHqjKM3JLirK-3">
          <mxGeometry relative="1" as="geometry" />
        </mxCell>
        <mxCell id="BrYFn9-QAHqjKM3JLirK-2" value="Parent&lt;div&gt;(UsersComp)&lt;/div&gt;" style="rounded=0;whiteSpace=wrap;html=1;" vertex="1" parent="1">
          <mxGeometry x="365" y="150" width="120" height="60" as="geometry" />
        </mxCell>
        <mxCell id="BrYFn9-QAHqjKM3JLirK-8" style="edgeStyle=orthogonalEdgeStyle;rounded=0;orthogonalLoop=1;jettySize=auto;html=1;exitX=0.75;exitY=0;exitDx=0;exitDy=0;entryX=0.75;entryY=1;entryDx=0;entryDy=0;" edge="1" parent="1" source="BrYFn9-QAHqjKM3JLirK-3" target="BrYFn9-QAHqjKM3JLirK-2">
          <mxGeometry relative="1" as="geometry" />
        </mxCell>
        <mxCell id="BrYFn9-QAHqjKM3JLirK-3" value="Child&lt;div&gt;(UserImageComp)&lt;/div&gt;" style="rounded=0;whiteSpace=wrap;html=1;" vertex="1" parent="1">
          <mxGeometry x="365" y="400" width="120" height="60" as="geometry" />
        </mxCell>
        <mxCell id="BrYFn9-QAHqjKM3JLirK-5" value="@Input()" style="text;html=1;align=center;verticalAlign=middle;resizable=0;points=[];autosize=1;strokeColor=none;fillColor=none;" vertex="1" parent="1">
          <mxGeometry x="245" y="408" width="70" height="30" as="geometry" />
        </mxCell>
        <mxCell id="BrYFn9-QAHqjKM3JLirK-6" value="[ Property Binding ]&amp;nbsp;" style="text;html=1;align=center;verticalAlign=middle;resizable=0;points=[];autosize=1;strokeColor=none;fillColor=none;" vertex="1" parent="1">
          <mxGeometry x="230" y="180" width="130" height="30" as="geometry" />
        </mxCell>
        <mxCell id="BrYFn9-QAHqjKM3JLirK-7" value="user model" style="text;html=1;align=center;verticalAlign=middle;resizable=0;points=[];autosize=1;strokeColor=none;fillColor=none;" vertex="1" parent="1">
          <mxGeometry x="270" y="150" width="80" height="30" as="geometry" />
        </mxCell>
        <mxCell id="BrYFn9-QAHqjKM3JLirK-9" value="@Output()" style="text;html=1;align=center;verticalAlign=middle;resizable=0;points=[];autosize=1;strokeColor=none;fillColor=none;" vertex="1" parent="1">
          <mxGeometry x="500" y="398" width="80" height="30" as="geometry" />
        </mxCell>
        <mxCell id="BrYFn9-QAHqjKM3JLirK-10" value="( Event Binding )" style="text;html=1;align=center;verticalAlign=middle;resizable=0;points=[];autosize=1;strokeColor=none;fillColor=none;" vertex="1" parent="1">
          <mxGeometry x="485" y="165" width="110" height="30" as="geometry" />
        </mxCell>
        <mxCell id="BrYFn9-QAHqjKM3JLirK-11" value="EventEmitter Class" style="text;html=1;align=center;verticalAlign=middle;resizable=0;points=[];autosize=1;strokeColor=none;fillColor=none;" vertex="1" parent="1">
          <mxGeometry x="500" y="428" width="130" height="30" as="geometry" />
        </mxCell>
      </root>
    </mxGraphModel>
  </diagram>
  <diagram id="Q9oAYAzp5pNjasNWlvYO" name="Page-4">
    <mxGraphModel dx="694" dy="391" grid="1" gridSize="10" guides="1" tooltips="1" connect="1" arrows="1" fold="1" page="1" pageScale="1" pageWidth="850" pageHeight="1100" math="0" shadow="0">
      <root>
        <mxCell id="0" />
        <mxCell id="1" parent="0" />
        <mxCell id="1d4C2GK-_z_z4Cylq3b0-4" style="edgeStyle=orthogonalEdgeStyle;rounded=0;orthogonalLoop=1;jettySize=auto;html=1;exitX=1;exitY=0.25;exitDx=0;exitDy=0;" edge="1" parent="1" source="1d4C2GK-_z_z4Cylq3b0-1">
          <mxGeometry relative="1" as="geometry">
            <mxPoint x="570" y="135.39999999999998" as="targetPoint" />
          </mxGeometry>
        </mxCell>
        <mxCell id="1d4C2GK-_z_z4Cylq3b0-1" value="UsersComponent" style="rounded=0;whiteSpace=wrap;html=1;" vertex="1" parent="1">
          <mxGeometry x="120" y="120" width="120" height="60" as="geometry" />
        </mxCell>
        <mxCell id="1d4C2GK-_z_z4Cylq3b0-5" style="edgeStyle=orthogonalEdgeStyle;rounded=0;orthogonalLoop=1;jettySize=auto;html=1;exitX=0;exitY=0;exitDx=0;exitDy=52.5;exitPerimeter=0;" edge="1" parent="1" source="1d4C2GK-_z_z4Cylq3b0-2">
          <mxGeometry relative="1" as="geometry">
            <mxPoint x="250" y="162.60000000000002" as="targetPoint" />
          </mxGeometry>
        </mxCell>
        <mxCell id="1d4C2GK-_z_z4Cylq3b0-9" style="edgeStyle=orthogonalEdgeStyle;rounded=0;orthogonalLoop=1;jettySize=auto;html=1;exitX=0.5;exitY=1;exitDx=0;exitDy=0;exitPerimeter=0;entryX=1;entryY=0.75;entryDx=0;entryDy=0;" edge="1" parent="1" source="1d4C2GK-_z_z4Cylq3b0-2" target="1d4C2GK-_z_z4Cylq3b0-7">
          <mxGeometry relative="1" as="geometry" />
        </mxCell>
        <mxCell id="1d4C2GK-_z_z4Cylq3b0-2" value="Data Source" style="shape=cylinder3;whiteSpace=wrap;html=1;boundedLbl=1;backgroundOutline=1;size=15;" vertex="1" parent="1">
          <mxGeometry x="580" y="110" width="60" height="80" as="geometry" />
        </mxCell>
        <mxCell id="1d4C2GK-_z_z4Cylq3b0-3" value="mock.ts" style="text;html=1;align=center;verticalAlign=middle;resizable=0;points=[];autosize=1;strokeColor=none;fillColor=none;" vertex="1" parent="1">
          <mxGeometry x="660" y="135" width="60" height="30" as="geometry" />
        </mxCell>
        <mxCell id="1d4C2GK-_z_z4Cylq3b0-6" value="Model 01" style="text;html=1;align=center;verticalAlign=middle;resizable=0;points=[];autosize=1;strokeColor=none;fillColor=none;" vertex="1" parent="1">
          <mxGeometry x="45" y="128" width="70" height="30" as="geometry" />
        </mxCell>
        <mxCell id="1d4C2GK-_z_z4Cylq3b0-7" value="Employee&lt;div&gt;Component&lt;/div&gt;" style="rounded=0;whiteSpace=wrap;html=1;" vertex="1" parent="1">
          <mxGeometry x="120" y="228" width="120" height="60" as="geometry" />
        </mxCell>
        <mxCell id="1d4C2GK-_z_z4Cylq3b0-8" style="edgeStyle=orthogonalEdgeStyle;rounded=0;orthogonalLoop=1;jettySize=auto;html=1;exitX=1;exitY=0.25;exitDx=0;exitDy=0;entryX=0;entryY=1;entryDx=0;entryDy=-15;entryPerimeter=0;" edge="1" parent="1" source="1d4C2GK-_z_z4Cylq3b0-7" target="1d4C2GK-_z_z4Cylq3b0-2">
          <mxGeometry relative="1" as="geometry" />
        </mxCell>
        <mxCell id="1d4C2GK-_z_z4Cylq3b0-10" value="Model 02" style="text;html=1;align=center;verticalAlign=middle;resizable=0;points=[];autosize=1;strokeColor=none;fillColor=none;" vertex="1" parent="1">
          <mxGeometry x="45" y="238" width="70" height="30" as="geometry" />
        </mxCell>
        <mxCell id="1d4C2GK-_z_z4Cylq3b0-11" value="Data Inconsistency" style="text;html=1;align=center;verticalAlign=middle;resizable=0;points=[];autosize=1;strokeColor=none;fillColor=none;" vertex="1" parent="1">
          <mxGeometry x="260" y="320" width="120" height="30" as="geometry" />
        </mxCell>
        <mxCell id="1d4C2GK-_z_z4Cylq3b0-12" value="Cloud&amp;nbsp;" style="text;html=1;align=center;verticalAlign=middle;resizable=0;points=[];autosize=1;strokeColor=none;fillColor=none;" vertex="1" parent="1">
          <mxGeometry x="660" y="158" width="60" height="30" as="geometry" />
        </mxCell>
        <mxCell id="1d4C2GK-_z_z4Cylq3b0-13" value="Multiple Copies of same data" style="text;html=1;align=center;verticalAlign=middle;resizable=0;points=[];autosize=1;strokeColor=none;fillColor=none;" vertex="1" parent="1">
          <mxGeometry x="220" y="348" width="180" height="30" as="geometry" />
        </mxCell>
        <mxCell id="1d4C2GK-_z_z4Cylq3b0-14" value="Component is responsible to access the data source" style="text;html=1;align=center;verticalAlign=middle;resizable=0;points=[];autosize=1;strokeColor=none;fillColor=none;" vertex="1" parent="1">
          <mxGeometry x="170" y="378" width="300" height="30" as="geometry" />
        </mxCell>
        <mxCell id="1d4C2GK-_z_z4Cylq3b0-22" style="edgeStyle=orthogonalEdgeStyle;rounded=0;orthogonalLoop=1;jettySize=auto;html=1;exitX=1;exitY=0.25;exitDx=0;exitDy=0;entryX=0.25;entryY=0;entryDx=0;entryDy=0;" edge="1" parent="1" source="1d4C2GK-_z_z4Cylq3b0-15" target="1d4C2GK-_z_z4Cylq3b0-19">
          <mxGeometry relative="1" as="geometry" />
        </mxCell>
        <mxCell id="1d4C2GK-_z_z4Cylq3b0-15" value="Comp A" style="rounded=0;whiteSpace=wrap;html=1;" vertex="1" parent="1">
          <mxGeometry x="160" y="520" width="120" height="60" as="geometry" />
        </mxCell>
        <mxCell id="1d4C2GK-_z_z4Cylq3b0-24" style="edgeStyle=orthogonalEdgeStyle;rounded=0;orthogonalLoop=1;jettySize=auto;html=1;exitX=1;exitY=0.75;exitDx=0;exitDy=0;entryX=0.25;entryY=1;entryDx=0;entryDy=0;" edge="1" parent="1" source="1d4C2GK-_z_z4Cylq3b0-16" target="1d4C2GK-_z_z4Cylq3b0-19">
          <mxGeometry relative="1" as="geometry" />
        </mxCell>
        <mxCell id="1d4C2GK-_z_z4Cylq3b0-16" value="Comp B" style="rounded=0;whiteSpace=wrap;html=1;" vertex="1" parent="1">
          <mxGeometry x="160" y="610" width="120" height="60" as="geometry" />
        </mxCell>
        <mxCell id="1d4C2GK-_z_z4Cylq3b0-21" style="edgeStyle=orthogonalEdgeStyle;rounded=0;orthogonalLoop=1;jettySize=auto;html=1;exitX=0;exitY=0;exitDx=0;exitDy=52.5;exitPerimeter=0;" edge="1" parent="1" source="1d4C2GK-_z_z4Cylq3b0-18">
          <mxGeometry relative="1" as="geometry">
            <mxPoint x="550" y="602.6" as="targetPoint" />
          </mxGeometry>
        </mxCell>
        <mxCell id="1d4C2GK-_z_z4Cylq3b0-18" value="Data&lt;div&gt;Source&lt;/div&gt;" style="shape=cylinder3;whiteSpace=wrap;html=1;boundedLbl=1;backgroundOutline=1;size=15;" vertex="1" parent="1">
          <mxGeometry x="670" y="550" width="60" height="80" as="geometry" />
        </mxCell>
        <mxCell id="1d4C2GK-_z_z4Cylq3b0-20" style="edgeStyle=orthogonalEdgeStyle;rounded=0;orthogonalLoop=1;jettySize=auto;html=1;exitX=1;exitY=0.25;exitDx=0;exitDy=0;" edge="1" parent="1" source="1d4C2GK-_z_z4Cylq3b0-19">
          <mxGeometry relative="1" as="geometry">
            <mxPoint x="660" y="575.4" as="targetPoint" />
          </mxGeometry>
        </mxCell>
        <mxCell id="1d4C2GK-_z_z4Cylq3b0-25" style="edgeStyle=orthogonalEdgeStyle;rounded=0;orthogonalLoop=1;jettySize=auto;html=1;exitX=0;exitY=0.5;exitDx=0;exitDy=0;entryX=1;entryY=0.25;entryDx=0;entryDy=0;" edge="1" parent="1" source="1d4C2GK-_z_z4Cylq3b0-19" target="1d4C2GK-_z_z4Cylq3b0-16">
          <mxGeometry relative="1" as="geometry" />
        </mxCell>
        <mxCell id="1d4C2GK-_z_z4Cylq3b0-19" value="Data&lt;div&gt;Service&lt;/div&gt;&lt;div&gt;(Singleton)&lt;/div&gt;" style="rounded=0;whiteSpace=wrap;html=1;" vertex="1" parent="1">
          <mxGeometry x="420" y="560" width="120" height="60" as="geometry" />
        </mxCell>
        <mxCell id="1d4C2GK-_z_z4Cylq3b0-23" style="edgeStyle=orthogonalEdgeStyle;rounded=0;orthogonalLoop=1;jettySize=auto;html=1;exitX=0;exitY=0.5;exitDx=0;exitDy=0;entryX=1.017;entryY=0.67;entryDx=0;entryDy=0;entryPerimeter=0;" edge="1" parent="1" source="1d4C2GK-_z_z4Cylq3b0-19" target="1d4C2GK-_z_z4Cylq3b0-15">
          <mxGeometry relative="1" as="geometry" />
        </mxCell>
        <mxCell id="1d4C2GK-_z_z4Cylq3b0-26" value="Responsibility Delegate&amp;nbsp;" style="text;html=1;align=center;verticalAlign=middle;resizable=0;points=[];autosize=1;strokeColor=none;fillColor=none;" vertex="1" parent="1">
          <mxGeometry x="390" y="688" width="150" height="30" as="geometry" />
        </mxCell>
        <mxCell id="1d4C2GK-_z_z4Cylq3b0-27" value="Model 1" style="text;html=1;align=center;verticalAlign=middle;resizable=0;points=[];autosize=1;strokeColor=none;fillColor=none;" vertex="1" parent="1">
          <mxGeometry x="85" y="528" width="70" height="30" as="geometry" />
        </mxCell>
        <mxCell id="1d4C2GK-_z_z4Cylq3b0-28" value="Model 1" style="text;html=1;align=center;verticalAlign=middle;resizable=0;points=[];autosize=1;strokeColor=none;fillColor=none;" vertex="1" parent="1">
          <mxGeometry x="85" y="628" width="70" height="30" as="geometry" />
        </mxCell>
        <mxCell id="1d4C2GK-_z_z4Cylq3b0-29" value="No Data inconsistency" style="text;html=1;align=center;verticalAlign=middle;resizable=0;points=[];autosize=1;strokeColor=none;fillColor=none;" vertex="1" parent="1">
          <mxGeometry x="395" y="718" width="140" height="30" as="geometry" />
        </mxCell>
        <mxCell id="1d4C2GK-_z_z4Cylq3b0-30" value="DIP : Dependency Injection Principle&lt;div&gt;&lt;br&gt;&lt;/div&gt;&lt;div&gt;SRP : Single Responsibility Principle&lt;/div&gt;" style="text;html=1;align=center;verticalAlign=middle;resizable=0;points=[];autosize=1;strokeColor=none;fillColor=none;" vertex="1" parent="1">
          <mxGeometry x="390" y="748" width="220" height="60" as="geometry" />
        </mxCell>
      </root>
    </mxGraphModel>
  </diagram>
  <diagram id="l6i-cwj1LgK9iqo5XtYS" name="Page-5">
    <mxGraphModel dx="723" dy="408" grid="1" gridSize="10" guides="1" tooltips="1" connect="1" arrows="1" fold="1" page="1" pageScale="1" pageWidth="850" pageHeight="1100" math="0" shadow="0">
      <root>
        <mxCell id="0" />
        <mxCell id="1" parent="0" />
        <mxCell id="spw75TLck4qfDdfe9r22-1" value="Dependency Injector Hierarchy" style="text;strokeColor=none;fillColor=none;html=1;fontSize=24;fontStyle=1;verticalAlign=middle;align=center;" vertex="1" parent="1">
          <mxGeometry x="375" y="20" width="100" height="40" as="geometry" />
        </mxCell>
        <mxCell id="spw75TLck4qfDdfe9r22-4" value="" style="edgeStyle=orthogonalEdgeStyle;rounded=0;orthogonalLoop=1;jettySize=auto;html=1;" edge="1" parent="1" source="spw75TLck4qfDdfe9r22-2" target="spw75TLck4qfDdfe9r22-3">
          <mxGeometry relative="1" as="geometry" />
        </mxCell>
        <mxCell id="spw75TLck4qfDdfe9r22-2" value="Null Injector" style="rounded=0;whiteSpace=wrap;html=1;" vertex="1" parent="1">
          <mxGeometry x="160" y="90" width="120" height="60" as="geometry" />
        </mxCell>
        <mxCell id="spw75TLck4qfDdfe9r22-6" value="" style="edgeStyle=orthogonalEdgeStyle;rounded=0;orthogonalLoop=1;jettySize=auto;html=1;" edge="1" parent="1" source="spw75TLck4qfDdfe9r22-3" target="spw75TLck4qfDdfe9r22-5">
          <mxGeometry relative="1" as="geometry" />
        </mxCell>
        <mxCell id="spw75TLck4qfDdfe9r22-55" style="edgeStyle=orthogonalEdgeStyle;rounded=0;orthogonalLoop=1;jettySize=auto;html=1;exitX=0.75;exitY=0;exitDx=0;exitDy=0;entryX=0.75;entryY=1;entryDx=0;entryDy=0;" edge="1" parent="1" source="spw75TLck4qfDdfe9r22-3" target="spw75TLck4qfDdfe9r22-2">
          <mxGeometry relative="1" as="geometry" />
        </mxCell>
        <mxCell id="spw75TLck4qfDdfe9r22-3" value="Platform Injector" style="rounded=0;whiteSpace=wrap;html=1;" vertex="1" parent="1">
          <mxGeometry x="160" y="190" width="120" height="60" as="geometry" />
        </mxCell>
        <mxCell id="spw75TLck4qfDdfe9r22-54" style="edgeStyle=orthogonalEdgeStyle;rounded=0;orthogonalLoop=1;jettySize=auto;html=1;exitX=0.75;exitY=0;exitDx=0;exitDy=0;entryX=0.75;entryY=1;entryDx=0;entryDy=0;" edge="1" parent="1" source="spw75TLck4qfDdfe9r22-5" target="spw75TLck4qfDdfe9r22-3">
          <mxGeometry relative="1" as="geometry" />
        </mxCell>
        <mxCell id="spw75TLck4qfDdfe9r22-5" value="Root Injector" style="rounded=0;whiteSpace=wrap;html=1;" vertex="1" parent="1">
          <mxGeometry x="160" y="290" width="119" height="60" as="geometry" />
        </mxCell>
        <mxCell id="spw75TLck4qfDdfe9r22-9" value="" style="edgeStyle=orthogonalEdgeStyle;rounded=0;orthogonalLoop=1;jettySize=auto;html=1;" edge="1" parent="1" source="spw75TLck4qfDdfe9r22-7" target="spw75TLck4qfDdfe9r22-8">
          <mxGeometry relative="1" as="geometry" />
        </mxCell>
        <mxCell id="spw75TLck4qfDdfe9r22-50" style="edgeStyle=orthogonalEdgeStyle;rounded=0;orthogonalLoop=1;jettySize=auto;html=1;exitX=0;exitY=0.5;exitDx=0;exitDy=0;entryX=0.5;entryY=1;entryDx=0;entryDy=0;" edge="1" parent="1" source="spw75TLck4qfDdfe9r22-7" target="spw75TLck4qfDdfe9r22-5">
          <mxGeometry relative="1" as="geometry">
            <Array as="points">
              <mxPoint x="340" y="120" />
              <mxPoint x="340" y="370" />
              <mxPoint x="220" y="370" />
            </Array>
          </mxGeometry>
        </mxCell>
        <mxCell id="spw75TLck4qfDdfe9r22-7" value="Root Component" style="rounded=0;whiteSpace=wrap;html=1;" vertex="1" parent="1">
          <mxGeometry x="480" y="90" width="120" height="60" as="geometry" />
        </mxCell>
        <mxCell id="spw75TLck4qfDdfe9r22-11" value="" style="edgeStyle=orthogonalEdgeStyle;rounded=0;orthogonalLoop=1;jettySize=auto;html=1;" edge="1" parent="1" source="spw75TLck4qfDdfe9r22-8" target="spw75TLck4qfDdfe9r22-10">
          <mxGeometry relative="1" as="geometry" />
        </mxCell>
        <mxCell id="spw75TLck4qfDdfe9r22-52" style="edgeStyle=orthogonalEdgeStyle;rounded=0;orthogonalLoop=1;jettySize=auto;html=1;exitX=0.25;exitY=0;exitDx=0;exitDy=0;entryX=0.25;entryY=1;entryDx=0;entryDy=0;" edge="1" parent="1" source="spw75TLck4qfDdfe9r22-8" target="spw75TLck4qfDdfe9r22-7">
          <mxGeometry relative="1" as="geometry" />
        </mxCell>
        <mxCell id="spw75TLck4qfDdfe9r22-8" value="Child Component" style="rounded=0;whiteSpace=wrap;html=1;" vertex="1" parent="1">
          <mxGeometry x="480" y="200" width="120" height="60" as="geometry" />
        </mxCell>
        <mxCell id="spw75TLck4qfDdfe9r22-51" style="edgeStyle=orthogonalEdgeStyle;rounded=0;orthogonalLoop=1;jettySize=auto;html=1;exitX=0.25;exitY=0;exitDx=0;exitDy=0;entryX=0.25;entryY=1;entryDx=0;entryDy=0;" edge="1" parent="1" source="spw75TLck4qfDdfe9r22-10" target="spw75TLck4qfDdfe9r22-8">
          <mxGeometry relative="1" as="geometry" />
        </mxCell>
        <mxCell id="spw75TLck4qfDdfe9r22-10" value="Grand Child Component" style="rounded=0;whiteSpace=wrap;html=1;" vertex="1" parent="1">
          <mxGeometry x="480" y="300" width="120" height="60" as="geometry" />
        </mxCell>
        <mxCell id="spw75TLck4qfDdfe9r22-14" value="" style="edgeStyle=orthogonalEdgeStyle;rounded=0;orthogonalLoop=1;jettySize=auto;html=1;" edge="1" parent="1" source="spw75TLck4qfDdfe9r22-12" target="spw75TLck4qfDdfe9r22-13">
          <mxGeometry relative="1" as="geometry" />
        </mxCell>
        <mxCell id="spw75TLck4qfDdfe9r22-20" style="edgeStyle=orthogonalEdgeStyle;rounded=0;orthogonalLoop=1;jettySize=auto;html=1;exitX=0.5;exitY=1;exitDx=0;exitDy=0;" edge="1" parent="1" source="spw75TLck4qfDdfe9r22-12" target="spw75TLck4qfDdfe9r22-19">
          <mxGeometry relative="1" as="geometry" />
        </mxCell>
        <mxCell id="spw75TLck4qfDdfe9r22-22" style="edgeStyle=orthogonalEdgeStyle;rounded=0;orthogonalLoop=1;jettySize=auto;html=1;exitX=0.5;exitY=1;exitDx=0;exitDy=0;" edge="1" parent="1" source="spw75TLck4qfDdfe9r22-12" target="spw75TLck4qfDdfe9r22-21">
          <mxGeometry relative="1" as="geometry" />
        </mxCell>
        <mxCell id="spw75TLck4qfDdfe9r22-12" value="Root Comp" style="rounded=0;whiteSpace=wrap;html=1;" vertex="1" parent="1">
          <mxGeometry x="365" y="500" width="120" height="60" as="geometry" />
        </mxCell>
        <mxCell id="spw75TLck4qfDdfe9r22-16" value="" style="edgeStyle=orthogonalEdgeStyle;rounded=0;orthogonalLoop=1;jettySize=auto;html=1;" edge="1" parent="1" source="spw75TLck4qfDdfe9r22-13" target="spw75TLck4qfDdfe9r22-15">
          <mxGeometry relative="1" as="geometry" />
        </mxCell>
        <mxCell id="spw75TLck4qfDdfe9r22-18" style="edgeStyle=orthogonalEdgeStyle;rounded=0;orthogonalLoop=1;jettySize=auto;html=1;exitX=0.5;exitY=1;exitDx=0;exitDy=0;entryX=0.5;entryY=0;entryDx=0;entryDy=0;" edge="1" parent="1" source="spw75TLck4qfDdfe9r22-13" target="spw75TLck4qfDdfe9r22-17">
          <mxGeometry relative="1" as="geometry" />
        </mxCell>
        <mxCell id="spw75TLck4qfDdfe9r22-13" value="Users Comp" style="rounded=0;whiteSpace=wrap;html=1;" vertex="1" parent="1">
          <mxGeometry x="365" y="640" width="120" height="60" as="geometry" />
        </mxCell>
        <mxCell id="spw75TLck4qfDdfe9r22-15" value="UsersInfo Comp" style="rounded=0;whiteSpace=wrap;html=1;" vertex="1" parent="1">
          <mxGeometry x="290" y="750" width="120" height="60" as="geometry" />
        </mxCell>
        <mxCell id="spw75TLck4qfDdfe9r22-17" value="UsersImg Comp" style="rounded=0;whiteSpace=wrap;html=1;" vertex="1" parent="1">
          <mxGeometry x="450" y="750" width="120" height="60" as="geometry" />
        </mxCell>
        <mxCell id="spw75TLck4qfDdfe9r22-19" value="Register Comp" style="rounded=0;whiteSpace=wrap;html=1;" vertex="1" parent="1">
          <mxGeometry x="220" y="640" width="120" height="60" as="geometry" />
        </mxCell>
        <mxCell id="spw75TLck4qfDdfe9r22-21" value="LifeCycle Comp" style="rounded=0;whiteSpace=wrap;html=1;" vertex="1" parent="1">
          <mxGeometry x="520" y="640" width="120" height="60" as="geometry" />
        </mxCell>
        <mxCell id="spw75TLck4qfDdfe9r22-24" style="edgeStyle=orthogonalEdgeStyle;rounded=0;orthogonalLoop=1;jettySize=auto;html=1;exitX=1;exitY=0.5;exitDx=0;exitDy=0;" edge="1" parent="1" source="spw75TLck4qfDdfe9r22-23">
          <mxGeometry relative="1" as="geometry">
            <mxPoint x="360" y="530.3333333333334" as="targetPoint" />
          </mxGeometry>
        </mxCell>
        <mxCell id="spw75TLck4qfDdfe9r22-23" value="Data Service" style="ellipse;whiteSpace=wrap;html=1;fillColor=#dae8fc;strokeColor=#6c8ebf;" vertex="1" parent="1">
          <mxGeometry x="110" y="490" width="120" height="80" as="geometry" />
        </mxCell>
        <mxCell id="spw75TLck4qfDdfe9r22-25" value="DS1" style="ellipse;whiteSpace=wrap;html=1;fillColor=#dae8fc;strokeColor=#6c8ebf;" vertex="1" parent="1">
          <mxGeometry x="190" y="550" width="30" height="30" as="geometry" />
        </mxCell>
        <mxCell id="spw75TLck4qfDdfe9r22-27" value="DS1" style="ellipse;whiteSpace=wrap;html=1;fillColor=#dae8fc;strokeColor=#6c8ebf;" vertex="1" parent="1">
          <mxGeometry x="445" y="790" width="30" height="30" as="geometry" />
        </mxCell>
        <mxCell id="spw75TLck4qfDdfe9r22-28" value="DS1" style="ellipse;whiteSpace=wrap;html=1;fillColor=#dae8fc;strokeColor=#6c8ebf;" vertex="1" parent="1">
          <mxGeometry x="280" y="790" width="30" height="30" as="geometry" />
        </mxCell>
        <mxCell id="spw75TLck4qfDdfe9r22-29" value="DS1" style="ellipse;whiteSpace=wrap;html=1;fillColor=#dae8fc;strokeColor=#6c8ebf;" vertex="1" parent="1">
          <mxGeometry x="520" y="680" width="30" height="30" as="geometry" />
        </mxCell>
        <mxCell id="spw75TLck4qfDdfe9r22-30" value="DS1" style="ellipse;whiteSpace=wrap;html=1;fillColor=#dae8fc;strokeColor=#6c8ebf;" vertex="1" parent="1">
          <mxGeometry x="365" y="680" width="30" height="30" as="geometry" />
        </mxCell>
        <mxCell id="spw75TLck4qfDdfe9r22-31" value="DS1" style="ellipse;whiteSpace=wrap;html=1;fillColor=#dae8fc;strokeColor=#6c8ebf;" vertex="1" parent="1">
          <mxGeometry x="210" y="680" width="30" height="30" as="geometry" />
        </mxCell>
        <mxCell id="spw75TLck4qfDdfe9r22-32" value="DS1" style="ellipse;whiteSpace=wrap;html=1;fillColor=#dae8fc;strokeColor=#6c8ebf;" vertex="1" parent="1">
          <mxGeometry x="350" y="535" width="30" height="30" as="geometry" />
        </mxCell>
        <mxCell id="spw75TLck4qfDdfe9r22-33" value="Auth Service" style="ellipse;whiteSpace=wrap;html=1;fillColor=#d5e8d4;strokeColor=#82b366;" vertex="1" parent="1">
          <mxGeometry x="620" y="490" width="120" height="80" as="geometry" />
        </mxCell>
        <mxCell id="spw75TLck4qfDdfe9r22-34" style="edgeStyle=orthogonalEdgeStyle;rounded=0;orthogonalLoop=1;jettySize=auto;html=1;exitX=0;exitY=0.5;exitDx=0;exitDy=0;entryX=0.86;entryY=0.019;entryDx=0;entryDy=0;entryPerimeter=0;" edge="1" parent="1" source="spw75TLck4qfDdfe9r22-33" target="spw75TLck4qfDdfe9r22-13">
          <mxGeometry relative="1" as="geometry">
            <Array as="points">
              <mxPoint x="620" y="580" />
              <mxPoint x="468" y="580" />
            </Array>
          </mxGeometry>
        </mxCell>
        <mxCell id="spw75TLck4qfDdfe9r22-35" value="AS1" style="ellipse;whiteSpace=wrap;html=1;fillColor=#d5e8d4;strokeColor=#82b366;" vertex="1" parent="1">
          <mxGeometry x="650" y="560" width="30" height="30" as="geometry" />
        </mxCell>
        <mxCell id="spw75TLck4qfDdfe9r22-37" value="AS1" style="ellipse;whiteSpace=wrap;html=1;fillColor=#d5e8d4;strokeColor=#82b366;" vertex="1" parent="1">
          <mxGeometry x="550" y="790" width="30" height="30" as="geometry" />
        </mxCell>
        <mxCell id="spw75TLck4qfDdfe9r22-38" value="AS1" style="ellipse;whiteSpace=wrap;html=1;fillColor=#d5e8d4;strokeColor=#82b366;" vertex="1" parent="1">
          <mxGeometry x="380" y="790" width="30" height="30" as="geometry" />
        </mxCell>
        <mxCell id="spw75TLck4qfDdfe9r22-39" value="AS1" style="ellipse;whiteSpace=wrap;html=1;fillColor=#d5e8d4;strokeColor=#82b366;" vertex="1" parent="1">
          <mxGeometry x="455" y="680" width="30" height="30" as="geometry" />
        </mxCell>
        <mxCell id="spw75TLck4qfDdfe9r22-43" style="edgeStyle=orthogonalEdgeStyle;rounded=0;orthogonalLoop=1;jettySize=auto;html=1;exitX=0.5;exitY=1;exitDx=0;exitDy=0;entryX=0.159;entryY=0.013;entryDx=0;entryDy=0;entryPerimeter=0;" edge="1" parent="1" source="spw75TLck4qfDdfe9r22-23" target="spw75TLck4qfDdfe9r22-13">
          <mxGeometry relative="1" as="geometry">
            <Array as="points">
              <mxPoint x="170" y="590" />
              <mxPoint x="384" y="590" />
            </Array>
          </mxGeometry>
        </mxCell>
        <mxCell id="spw75TLck4qfDdfe9r22-44" value="DS2" style="ellipse;whiteSpace=wrap;html=1;fillColor=#ffe6cc;strokeColor=#d79b00;" vertex="1" parent="1">
          <mxGeometry x="120" y="550" width="30" height="30" as="geometry" />
        </mxCell>
        <mxCell id="spw75TLck4qfDdfe9r22-46" value="DS2" style="ellipse;whiteSpace=wrap;html=1;fillColor=#ffe6cc;strokeColor=#d79b00;" vertex="1" parent="1">
          <mxGeometry x="445" y="790" width="30" height="30" as="geometry" />
        </mxCell>
        <mxCell id="spw75TLck4qfDdfe9r22-47" value="DS2" style="ellipse;whiteSpace=wrap;html=1;fillColor=#ffe6cc;strokeColor=#d79b00;" vertex="1" parent="1">
          <mxGeometry x="280" y="790" width="30" height="30" as="geometry" />
        </mxCell>
        <mxCell id="spw75TLck4qfDdfe9r22-48" value="DS2" style="ellipse;whiteSpace=wrap;html=1;fillColor=#ffe6cc;strokeColor=#d79b00;" vertex="1" parent="1">
          <mxGeometry x="365" y="680" width="30" height="30" as="geometry" />
        </mxCell>
        <mxCell id="spw75TLck4qfDdfe9r22-49" value="constructor(private counterService : CounterService){}" style="text;html=1;align=center;verticalAlign=middle;resizable=0;points=[];autosize=1;strokeColor=none;fillColor=none;" vertex="1" parent="1">
          <mxGeometry x="375" y="358" width="310" height="30" as="geometry" />
        </mxCell>
      </root>
    </mxGraphModel>
  </diagram>
  <diagram id="Qsg_wL9EmAQdX8WFRA5P" name="Page-6">
    <mxGraphModel dx="723" dy="408" grid="1" gridSize="10" guides="1" tooltips="1" connect="1" arrows="1" fold="1" page="1" pageScale="1" pageWidth="850" pageHeight="1100" math="0" shadow="0">
      <root>
        <mxCell id="0" />
        <mxCell id="1" parent="0" />
        <mxCell id="mgerb-KWqeOqckb2aubx-3" value="" style="edgeStyle=orthogonalEdgeStyle;rounded=0;orthogonalLoop=1;jettySize=auto;html=1;" edge="1" parent="1" source="mgerb-KWqeOqckb2aubx-1" target="mgerb-KWqeOqckb2aubx-2">
          <mxGeometry relative="1" as="geometry" />
        </mxCell>
        <mxCell id="mgerb-KWqeOqckb2aubx-1" value="Component" style="rounded=0;whiteSpace=wrap;html=1;" vertex="1" parent="1">
          <mxGeometry x="80" y="160" width="120" height="60" as="geometry" />
        </mxCell>
        <mxCell id="mgerb-KWqeOqckb2aubx-5" style="edgeStyle=orthogonalEdgeStyle;rounded=0;orthogonalLoop=1;jettySize=auto;html=1;exitX=1;exitY=0.5;exitDx=0;exitDy=0;dashed=1;dashPattern=12 12;" edge="1" parent="1" source="mgerb-KWqeOqckb2aubx-2">
          <mxGeometry relative="1" as="geometry">
            <mxPoint x="630" y="190.33333333333337" as="targetPoint" />
          </mxGeometry>
        </mxCell>
        <mxCell id="mgerb-KWqeOqckb2aubx-8" style="edgeStyle=orthogonalEdgeStyle;rounded=0;orthogonalLoop=1;jettySize=auto;html=1;exitX=0.25;exitY=1;exitDx=0;exitDy=0;entryX=0.5;entryY=1;entryDx=0;entryDy=0;" edge="1" parent="1" source="mgerb-KWqeOqckb2aubx-2" target="mgerb-KWqeOqckb2aubx-1">
          <mxGeometry relative="1" as="geometry">
            <Array as="points">
              <mxPoint x="310" y="250" />
              <mxPoint x="140" y="250" />
            </Array>
          </mxGeometry>
        </mxCell>
        <mxCell id="mgerb-KWqeOqckb2aubx-10" style="edgeStyle=orthogonalEdgeStyle;rounded=0;orthogonalLoop=1;jettySize=auto;html=1;exitX=1;exitY=0.25;exitDx=0;exitDy=0;entryX=0;entryY=0.5;entryDx=0;entryDy=0;" edge="1" parent="1" source="mgerb-KWqeOqckb2aubx-2" target="mgerb-KWqeOqckb2aubx-9">
          <mxGeometry relative="1" as="geometry" />
        </mxCell>
        <mxCell id="mgerb-KWqeOqckb2aubx-2" value="Service" style="rounded=0;whiteSpace=wrap;html=1;" vertex="1" parent="1">
          <mxGeometry x="280" y="160" width="120" height="60" as="geometry" />
        </mxCell>
        <mxCell id="mgerb-KWqeOqckb2aubx-13" style="edgeStyle=orthogonalEdgeStyle;rounded=0;orthogonalLoop=1;jettySize=auto;html=1;exitX=0.855;exitY=1;exitDx=0;exitDy=-4.35;exitPerimeter=0;entryX=1;entryY=0.5;entryDx=0;entryDy=0;" edge="1" parent="1" source="mgerb-KWqeOqckb2aubx-4" target="mgerb-KWqeOqckb2aubx-12">
          <mxGeometry relative="1" as="geometry">
            <Array as="points">
              <mxPoint x="691" y="310" />
            </Array>
          </mxGeometry>
        </mxCell>
        <mxCell id="mgerb-KWqeOqckb2aubx-4" value="Data Source" style="shape=cylinder3;whiteSpace=wrap;html=1;boundedLbl=1;backgroundOutline=1;size=15;" vertex="1" parent="1">
          <mxGeometry x="640" y="150" width="60" height="80" as="geometry" />
        </mxCell>
        <mxCell id="mgerb-KWqeOqckb2aubx-7" style="edgeStyle=orthogonalEdgeStyle;rounded=0;orthogonalLoop=1;jettySize=auto;html=1;exitX=0.5;exitY=1;exitDx=0;exitDy=0;exitPerimeter=0;entryX=0.843;entryY=0.992;entryDx=0;entryDy=0;entryPerimeter=0;dashed=1;dashPattern=12 12;" edge="1" parent="1" source="mgerb-KWqeOqckb2aubx-4" target="mgerb-KWqeOqckb2aubx-2">
          <mxGeometry relative="1" as="geometry" />
        </mxCell>
        <mxCell id="mgerb-KWqeOqckb2aubx-11" style="edgeStyle=orthogonalEdgeStyle;rounded=0;orthogonalLoop=1;jettySize=auto;html=1;exitX=1;exitY=0.5;exitDx=0;exitDy=0;" edge="1" parent="1" source="mgerb-KWqeOqckb2aubx-9">
          <mxGeometry relative="1" as="geometry">
            <mxPoint x="630" y="170" as="targetPoint" />
          </mxGeometry>
        </mxCell>
        <mxCell id="mgerb-KWqeOqckb2aubx-9" value="Interceptor" style="rhombus;whiteSpace=wrap;html=1;" vertex="1" parent="1">
          <mxGeometry x="470" y="90" width="80" height="80" as="geometry" />
        </mxCell>
        <mxCell id="mgerb-KWqeOqckb2aubx-12" value="Interceptor" style="rhombus;whiteSpace=wrap;html=1;" vertex="1" parent="1">
          <mxGeometry x="480" y="270" width="80" height="80" as="geometry" />
        </mxCell>
        <mxCell id="mgerb-KWqeOqckb2aubx-14" style="edgeStyle=orthogonalEdgeStyle;rounded=0;orthogonalLoop=1;jettySize=auto;html=1;exitX=0;exitY=0.5;exitDx=0;exitDy=0;entryX=0.583;entryY=1;entryDx=0;entryDy=0;entryPerimeter=0;" edge="1" parent="1" source="mgerb-KWqeOqckb2aubx-12" target="mgerb-KWqeOqckb2aubx-2">
          <mxGeometry relative="1" as="geometry" />
        </mxCell>
        <mxCell id="mgerb-KWqeOqckb2aubx-15" value="Request Interceptor" style="text;html=1;align=center;verticalAlign=middle;resizable=0;points=[];autosize=1;strokeColor=none;fillColor=none;" vertex="1" parent="1">
          <mxGeometry x="435" y="58" width="130" height="30" as="geometry" />
        </mxCell>
        <mxCell id="mgerb-KWqeOqckb2aubx-16" value="Response Interceptor" style="text;html=1;align=center;verticalAlign=middle;resizable=0;points=[];autosize=1;strokeColor=none;fillColor=none;" vertex="1" parent="1">
          <mxGeometry x="450" y="358" width="140" height="30" as="geometry" />
        </mxCell>
      </root>
    </mxGraphModel>
  </diagram>
  <diagram id="gYSbhKXUSGnjqdBMXGxs" name="Page-7">
    <mxGraphModel dx="668" dy="376" grid="1" gridSize="10" guides="1" tooltips="1" connect="1" arrows="1" fold="1" page="1" pageScale="1" pageWidth="850" pageHeight="1100" math="0" shadow="0">
      <root>
        <mxCell id="0" />
        <mxCell id="1" parent="0" />
        <mxCell id="U7o77j2tOXkWu5-fmnpE-1" value="" style="rounded=0;whiteSpace=wrap;html=1;" vertex="1" parent="1">
          <mxGeometry x="280" y="80" width="240" height="250" as="geometry" />
        </mxCell>
        <mxCell id="U7o77j2tOXkWu5-fmnpE-2" value="index.html" style="text;html=1;align=center;verticalAlign=middle;resizable=0;points=[];autosize=1;strokeColor=none;fillColor=none;" vertex="1" parent="1">
          <mxGeometry x="360" y="38" width="80" height="30" as="geometry" />
        </mxCell>
        <mxCell id="U7o77j2tOXkWu5-fmnpE-3" value="http://www.example.com/contact" style="rounded=0;whiteSpace=wrap;html=1;" vertex="1" parent="1">
          <mxGeometry x="290" y="90" width="220" height="30" as="geometry" />
        </mxCell>
        <mxCell id="U7o77j2tOXkWu5-fmnpE-4" value="Products" style="rounded=0;whiteSpace=wrap;html=1;" vertex="1" parent="1">
          <mxGeometry x="140" y="190" width="120" height="60" as="geometry" />
        </mxCell>
        <mxCell id="U7o77j2tOXkWu5-fmnpE-5" value="Employees" style="rounded=0;whiteSpace=wrap;html=1;" vertex="1" parent="1">
          <mxGeometry x="550" y="180" width="120" height="60" as="geometry" />
        </mxCell>
        <mxCell id="U7o77j2tOXkWu5-fmnpE-6" value="ContactUs" style="rounded=0;whiteSpace=wrap;html=1;" vertex="1" parent="1">
          <mxGeometry x="340" y="190" width="120" height="60" as="geometry" />
        </mxCell>
        <UserObject label="Home" link="https://www.draw.io" id="U7o77j2tOXkWu5-fmnpE-7">
          <mxCell style="text;html=1;strokeColor=none;fillColor=none;whiteSpace=wrap;align=center;verticalAlign=middle;fontColor=#0000EE;fontStyle=4;" vertex="1" parent="1">
            <mxGeometry x="290" y="120" width="60" height="40" as="geometry" />
          </mxCell>
        </UserObject>
        <UserObject label="Products" link="https://www.draw.io" id="U7o77j2tOXkWu5-fmnpE-8">
          <mxCell style="text;html=1;strokeColor=none;fillColor=none;whiteSpace=wrap;align=center;verticalAlign=middle;fontColor=#0000EE;fontStyle=4;" vertex="1" parent="1">
            <mxGeometry x="340" y="120" width="60" height="40" as="geometry" />
          </mxCell>
        </UserObject>
        <UserObject label="Employee" link="https://www.draw.io" id="U7o77j2tOXkWu5-fmnpE-9">
          <mxCell style="text;html=1;strokeColor=none;fillColor=none;whiteSpace=wrap;align=center;verticalAlign=middle;fontColor=#0000EE;fontStyle=4;" vertex="1" parent="1">
            <mxGeometry x="400" y="120" width="60" height="40" as="geometry" />
          </mxCell>
        </UserObject>
        <UserObject label="Contact" link="https://www.draw.io" id="U7o77j2tOXkWu5-fmnpE-10">
          <mxCell style="text;html=1;strokeColor=none;fillColor=none;whiteSpace=wrap;align=center;verticalAlign=middle;fontColor=#0000EE;fontStyle=4;" vertex="1" parent="1">
            <mxGeometry x="460" y="120" width="60" height="40" as="geometry" />
          </mxCell>
        </UserObject>
      </root>
    </mxGraphModel>
  </diagram>
  <diagram id="2G3ANe1b0Lk-s0q2x2ca" name="Page-8">
    <mxGraphModel dx="868" dy="489" grid="1" gridSize="10" guides="1" tooltips="1" connect="1" arrows="1" fold="1" page="1" pageScale="1" pageWidth="850" pageHeight="1100" math="0" shadow="0">
      <root>
        <mxCell id="0" />
        <mxCell id="1" parent="0" />
        <mxCell id="s-JrgI78XnRjw6oq5I7y-8" style="edgeStyle=orthogonalEdgeStyle;rounded=0;orthogonalLoop=1;jettySize=auto;html=1;exitX=0.5;exitY=1;exitDx=0;exitDy=0;" edge="1" parent="1" source="s-JrgI78XnRjw6oq5I7y-1" target="s-JrgI78XnRjw6oq5I7y-4">
          <mxGeometry relative="1" as="geometry" />
        </mxCell>
        <mxCell id="s-JrgI78XnRjw6oq5I7y-9" style="edgeStyle=orthogonalEdgeStyle;rounded=0;orthogonalLoop=1;jettySize=auto;html=1;exitX=0.5;exitY=1;exitDx=0;exitDy=0;entryX=0.5;entryY=0;entryDx=0;entryDy=0;" edge="1" parent="1" source="s-JrgI78XnRjw6oq5I7y-1" target="s-JrgI78XnRjw6oq5I7y-5">
          <mxGeometry relative="1" as="geometry" />
        </mxCell>
        <mxCell id="s-JrgI78XnRjw6oq5I7y-10" style="edgeStyle=orthogonalEdgeStyle;rounded=0;orthogonalLoop=1;jettySize=auto;html=1;exitX=0.5;exitY=1;exitDx=0;exitDy=0;entryX=0.5;entryY=0;entryDx=0;entryDy=0;" edge="1" parent="1" source="s-JrgI78XnRjw6oq5I7y-1" target="s-JrgI78XnRjw6oq5I7y-6">
          <mxGeometry relative="1" as="geometry" />
        </mxCell>
        <mxCell id="s-JrgI78XnRjw6oq5I7y-11" style="edgeStyle=orthogonalEdgeStyle;rounded=0;orthogonalLoop=1;jettySize=auto;html=1;exitX=0.5;exitY=1;exitDx=0;exitDy=0;entryX=0.5;entryY=0;entryDx=0;entryDy=0;" edge="1" parent="1" source="s-JrgI78XnRjw6oq5I7y-1" target="s-JrgI78XnRjw6oq5I7y-7">
          <mxGeometry relative="1" as="geometry" />
        </mxCell>
        <mxCell id="s-JrgI78XnRjw6oq5I7y-1" value="Root Module" style="rounded=0;whiteSpace=wrap;html=1;" vertex="1" parent="1">
          <mxGeometry x="360" y="80" width="120" height="40" as="geometry" />
        </mxCell>
        <mxCell id="s-JrgI78XnRjw6oq5I7y-2" value="Banking App" style="text;html=1;align=center;verticalAlign=middle;resizable=0;points=[];autosize=1;strokeColor=none;fillColor=none;" vertex="1" parent="1">
          <mxGeometry x="380" y="38" width="90" height="30" as="geometry" />
        </mxCell>
        <mxCell id="s-JrgI78XnRjw6oq5I7y-3" value="Saving Acc&lt;div&gt;Current Acc&lt;/div&gt;&lt;div&gt;Credit Card&lt;/div&gt;&lt;div&gt;Mortgage&lt;/div&gt;&lt;div&gt;Home Loan&lt;/div&gt;&lt;div&gt;Demat Acc&lt;/div&gt;" style="text;html=1;align=center;verticalAlign=middle;resizable=0;points=[];autosize=1;strokeColor=none;fillColor=none;" vertex="1" parent="1">
          <mxGeometry x="610" y="10" width="90" height="100" as="geometry" />
        </mxCell>
        <mxCell id="s-JrgI78XnRjw6oq5I7y-37" style="edgeStyle=orthogonalEdgeStyle;rounded=0;orthogonalLoop=1;jettySize=auto;html=1;exitX=0.5;exitY=1;exitDx=0;exitDy=0;entryX=0;entryY=0.5;entryDx=0;entryDy=0;" edge="1" parent="1" source="s-JrgI78XnRjw6oq5I7y-4" target="s-JrgI78XnRjw6oq5I7y-14">
          <mxGeometry relative="1" as="geometry" />
        </mxCell>
        <mxCell id="s-JrgI78XnRjw6oq5I7y-38" style="edgeStyle=orthogonalEdgeStyle;rounded=0;orthogonalLoop=1;jettySize=auto;html=1;exitX=0.5;exitY=1;exitDx=0;exitDy=0;entryX=0;entryY=0.5;entryDx=0;entryDy=0;" edge="1" parent="1" source="s-JrgI78XnRjw6oq5I7y-4" target="s-JrgI78XnRjw6oq5I7y-13">
          <mxGeometry relative="1" as="geometry" />
        </mxCell>
        <mxCell id="s-JrgI78XnRjw6oq5I7y-39" style="edgeStyle=orthogonalEdgeStyle;rounded=0;orthogonalLoop=1;jettySize=auto;html=1;exitX=0.5;exitY=1;exitDx=0;exitDy=0;entryX=0;entryY=0.5;entryDx=0;entryDy=0;" edge="1" parent="1" source="s-JrgI78XnRjw6oq5I7y-4" target="s-JrgI78XnRjw6oq5I7y-12">
          <mxGeometry relative="1" as="geometry" />
        </mxCell>
        <mxCell id="s-JrgI78XnRjw6oq5I7y-4" value="Account Opening" style="rounded=0;whiteSpace=wrap;html=1;" vertex="1" parent="1">
          <mxGeometry x="80" y="160" width="120" height="40" as="geometry" />
        </mxCell>
        <mxCell id="s-JrgI78XnRjw6oq5I7y-5" value="Loans" style="rounded=0;whiteSpace=wrap;html=1;" vertex="1" parent="1">
          <mxGeometry x="240" y="160" width="120" height="40" as="geometry" />
        </mxCell>
        <mxCell id="s-JrgI78XnRjw6oq5I7y-43" style="edgeStyle=orthogonalEdgeStyle;rounded=0;orthogonalLoop=1;jettySize=auto;html=1;exitX=0.5;exitY=1;exitDx=0;exitDy=0;entryX=0;entryY=0.5;entryDx=0;entryDy=0;" edge="1" parent="1" source="s-JrgI78XnRjw6oq5I7y-6" target="s-JrgI78XnRjw6oq5I7y-23">
          <mxGeometry relative="1" as="geometry" />
        </mxCell>
        <mxCell id="s-JrgI78XnRjw6oq5I7y-44" style="edgeStyle=orthogonalEdgeStyle;rounded=0;orthogonalLoop=1;jettySize=auto;html=1;exitX=0.5;exitY=1;exitDx=0;exitDy=0;entryX=0;entryY=0.5;entryDx=0;entryDy=0;" edge="1" parent="1" source="s-JrgI78XnRjw6oq5I7y-6" target="s-JrgI78XnRjw6oq5I7y-22">
          <mxGeometry relative="1" as="geometry" />
        </mxCell>
        <mxCell id="s-JrgI78XnRjw6oq5I7y-45" style="edgeStyle=orthogonalEdgeStyle;rounded=0;orthogonalLoop=1;jettySize=auto;html=1;exitX=0.5;exitY=1;exitDx=0;exitDy=0;entryX=0;entryY=0.5;entryDx=0;entryDy=0;" edge="1" parent="1" source="s-JrgI78XnRjw6oq5I7y-6" target="s-JrgI78XnRjw6oq5I7y-21">
          <mxGeometry relative="1" as="geometry" />
        </mxCell>
        <mxCell id="s-JrgI78XnRjw6oq5I7y-6" value="Trading" style="rounded=0;whiteSpace=wrap;html=1;" vertex="1" parent="1">
          <mxGeometry x="440" y="160" width="120" height="40" as="geometry" />
        </mxCell>
        <mxCell id="s-JrgI78XnRjw6oq5I7y-40" style="edgeStyle=orthogonalEdgeStyle;rounded=0;orthogonalLoop=1;jettySize=auto;html=1;exitX=0.5;exitY=1;exitDx=0;exitDy=0;entryX=0;entryY=0.5;entryDx=0;entryDy=0;" edge="1" parent="1" source="s-JrgI78XnRjw6oq5I7y-7" target="s-JrgI78XnRjw6oq5I7y-29">
          <mxGeometry relative="1" as="geometry" />
        </mxCell>
        <mxCell id="s-JrgI78XnRjw6oq5I7y-41" style="edgeStyle=orthogonalEdgeStyle;rounded=0;orthogonalLoop=1;jettySize=auto;html=1;exitX=0.5;exitY=1;exitDx=0;exitDy=0;entryX=0;entryY=0.5;entryDx=0;entryDy=0;" edge="1" parent="1" source="s-JrgI78XnRjw6oq5I7y-7" target="s-JrgI78XnRjw6oq5I7y-28">
          <mxGeometry relative="1" as="geometry" />
        </mxCell>
        <mxCell id="s-JrgI78XnRjw6oq5I7y-42" style="edgeStyle=orthogonalEdgeStyle;rounded=0;orthogonalLoop=1;jettySize=auto;html=1;exitX=0.5;exitY=1;exitDx=0;exitDy=0;entryX=0;entryY=0.5;entryDx=0;entryDy=0;" edge="1" parent="1" source="s-JrgI78XnRjw6oq5I7y-7" target="s-JrgI78XnRjw6oq5I7y-27">
          <mxGeometry relative="1" as="geometry" />
        </mxCell>
        <mxCell id="s-JrgI78XnRjw6oq5I7y-7" value="Credit Card" style="rounded=0;whiteSpace=wrap;html=1;" vertex="1" parent="1">
          <mxGeometry x="600" y="160" width="120" height="40" as="geometry" />
        </mxCell>
        <mxCell id="s-JrgI78XnRjw6oq5I7y-12" value="Components" style="rounded=0;whiteSpace=wrap;html=1;" vertex="1" parent="1">
          <mxGeometry x="160" y="240" width="120" height="40" as="geometry" />
        </mxCell>
        <mxCell id="s-JrgI78XnRjw6oq5I7y-13" value="Directives" style="rounded=0;whiteSpace=wrap;html=1;" vertex="1" parent="1">
          <mxGeometry x="160" y="300" width="120" height="40" as="geometry" />
        </mxCell>
        <mxCell id="s-JrgI78XnRjw6oq5I7y-14" value="Pipes" style="rounded=0;whiteSpace=wrap;html=1;" vertex="1" parent="1">
          <mxGeometry x="160" y="360" width="120" height="40" as="geometry" />
        </mxCell>
        <mxCell id="s-JrgI78XnRjw6oq5I7y-21" value="Components" style="rounded=0;whiteSpace=wrap;html=1;" vertex="1" parent="1">
          <mxGeometry x="520" y="240" width="120" height="40" as="geometry" />
        </mxCell>
        <mxCell id="s-JrgI78XnRjw6oq5I7y-22" value="Directives" style="rounded=0;whiteSpace=wrap;html=1;" vertex="1" parent="1">
          <mxGeometry x="520" y="300" width="120" height="40" as="geometry" />
        </mxCell>
        <mxCell id="s-JrgI78XnRjw6oq5I7y-23" value="Pipes" style="rounded=0;whiteSpace=wrap;html=1;" vertex="1" parent="1">
          <mxGeometry x="520" y="360" width="120" height="40" as="geometry" />
        </mxCell>
        <mxCell id="s-JrgI78XnRjw6oq5I7y-27" value="Components" style="rounded=0;whiteSpace=wrap;html=1;" vertex="1" parent="1">
          <mxGeometry x="680" y="220" width="120" height="40" as="geometry" />
        </mxCell>
        <mxCell id="s-JrgI78XnRjw6oq5I7y-28" value="Directives" style="rounded=0;whiteSpace=wrap;html=1;" vertex="1" parent="1">
          <mxGeometry x="680" y="280" width="120" height="40" as="geometry" />
        </mxCell>
        <mxCell id="s-JrgI78XnRjw6oq5I7y-29" value="Pipes" style="rounded=0;whiteSpace=wrap;html=1;" vertex="1" parent="1">
          <mxGeometry x="680" y="340" width="120" height="40" as="geometry" />
        </mxCell>
        <mxCell id="s-JrgI78XnRjw6oq5I7y-30" style="edgeStyle=orthogonalEdgeStyle;rounded=0;orthogonalLoop=1;jettySize=auto;html=1;exitX=0.5;exitY=1;exitDx=0;exitDy=0;entryX=0;entryY=0.5;entryDx=0;entryDy=0;" edge="1" parent="1" target="s-JrgI78XnRjw6oq5I7y-35">
          <mxGeometry relative="1" as="geometry">
            <mxPoint x="300" y="200" as="sourcePoint" />
          </mxGeometry>
        </mxCell>
        <mxCell id="s-JrgI78XnRjw6oq5I7y-31" style="edgeStyle=orthogonalEdgeStyle;rounded=0;orthogonalLoop=1;jettySize=auto;html=1;exitX=0.5;exitY=1;exitDx=0;exitDy=0;entryX=0;entryY=0.5;entryDx=0;entryDy=0;" edge="1" parent="1" target="s-JrgI78XnRjw6oq5I7y-34">
          <mxGeometry relative="1" as="geometry">
            <mxPoint x="300" y="200" as="sourcePoint" />
          </mxGeometry>
        </mxCell>
        <mxCell id="s-JrgI78XnRjw6oq5I7y-32" style="edgeStyle=orthogonalEdgeStyle;rounded=0;orthogonalLoop=1;jettySize=auto;html=1;exitX=0.5;exitY=1;exitDx=0;exitDy=0;entryX=0;entryY=0.5;entryDx=0;entryDy=0;" edge="1" parent="1" target="s-JrgI78XnRjw6oq5I7y-33">
          <mxGeometry relative="1" as="geometry">
            <mxPoint x="300" y="200" as="sourcePoint" />
          </mxGeometry>
        </mxCell>
        <mxCell id="s-JrgI78XnRjw6oq5I7y-33" value="Components" style="rounded=0;whiteSpace=wrap;html=1;" vertex="1" parent="1">
          <mxGeometry x="320" y="240" width="120" height="40" as="geometry" />
        </mxCell>
        <mxCell id="s-JrgI78XnRjw6oq5I7y-34" value="Directives" style="rounded=0;whiteSpace=wrap;html=1;" vertex="1" parent="1">
          <mxGeometry x="320" y="300" width="120" height="40" as="geometry" />
        </mxCell>
        <mxCell id="s-JrgI78XnRjw6oq5I7y-35" value="Pipes" style="rounded=0;whiteSpace=wrap;html=1;" vertex="1" parent="1">
          <mxGeometry x="320" y="360" width="120" height="40" as="geometry" />
        </mxCell>
        <mxCell id="s-JrgI78XnRjw6oq5I7y-46" value="BrowserModule" style="text;html=1;align=center;verticalAlign=middle;resizable=0;points=[];autosize=1;strokeColor=none;fillColor=none;" vertex="1" parent="1">
          <mxGeometry x="240" y="80" width="110" height="30" as="geometry" />
        </mxCell>
        <mxCell id="s-JrgI78XnRjw6oq5I7y-47" value="CommonModule" style="text;html=1;align=center;verticalAlign=middle;resizable=0;points=[];autosize=1;strokeColor=none;fillColor=none;" vertex="1" parent="1">
          <mxGeometry x="20" y="130" width="110" height="30" as="geometry" />
        </mxCell>
      </root>
    </mxGraphModel>
  </diagram>
  <diagram id="LDvzmLRXfBT5n4rVd6es" name="Page-9">
    <mxGraphModel dx="868" dy="489" grid="1" gridSize="10" guides="1" tooltips="1" connect="1" arrows="1" fold="1" page="1" pageScale="1" pageWidth="850" pageHeight="1100" math="0" shadow="0">
      <root>
        <mxCell id="0" />
        <mxCell id="1" parent="0" />
        <mxCell id="n3wySZi7lV5pkM7l6iqw-3" value="" style="edgeStyle=orthogonalEdgeStyle;rounded=0;orthogonalLoop=1;jettySize=auto;html=1;" edge="1" parent="1" source="n3wySZi7lV5pkM7l6iqw-1" target="n3wySZi7lV5pkM7l6iqw-2">
          <mxGeometry relative="1" as="geometry" />
        </mxCell>
        <mxCell id="n3wySZi7lV5pkM7l6iqw-12" style="edgeStyle=orthogonalEdgeStyle;rounded=0;orthogonalLoop=1;jettySize=auto;html=1;exitX=0.5;exitY=1;exitDx=0;exitDy=0;" edge="1" parent="1" source="n3wySZi7lV5pkM7l6iqw-1" target="n3wySZi7lV5pkM7l6iqw-10">
          <mxGeometry relative="1" as="geometry" />
        </mxCell>
        <mxCell id="n3wySZi7lV5pkM7l6iqw-14" style="edgeStyle=orthogonalEdgeStyle;rounded=0;orthogonalLoop=1;jettySize=auto;html=1;exitX=0.5;exitY=1;exitDx=0;exitDy=0;" edge="1" parent="1" source="n3wySZi7lV5pkM7l6iqw-1" target="n3wySZi7lV5pkM7l6iqw-8">
          <mxGeometry relative="1" as="geometry" />
        </mxCell>
        <mxCell id="n3wySZi7lV5pkM7l6iqw-1" value="Root Componnet" style="rounded=0;whiteSpace=wrap;html=1;" vertex="1" parent="1">
          <mxGeometry x="360" y="167" width="120" height="60" as="geometry" />
        </mxCell>
        <mxCell id="n3wySZi7lV5pkM7l6iqw-5" value="" style="edgeStyle=orthogonalEdgeStyle;rounded=0;orthogonalLoop=1;jettySize=auto;html=1;" edge="1" parent="1" source="n3wySZi7lV5pkM7l6iqw-2" target="n3wySZi7lV5pkM7l6iqw-4">
          <mxGeometry relative="1" as="geometry" />
        </mxCell>
        <mxCell id="n3wySZi7lV5pkM7l6iqw-7" style="edgeStyle=orthogonalEdgeStyle;rounded=0;orthogonalLoop=1;jettySize=auto;html=1;exitX=0.5;exitY=1;exitDx=0;exitDy=0;" edge="1" parent="1" source="n3wySZi7lV5pkM7l6iqw-2" target="n3wySZi7lV5pkM7l6iqw-6">
          <mxGeometry relative="1" as="geometry" />
        </mxCell>
        <mxCell id="n3wySZi7lV5pkM7l6iqw-2" value="B1" style="rounded=0;whiteSpace=wrap;html=1;fillColor=#f5f5f5;fontColor=#333333;strokeColor=#666666;" vertex="1" parent="1">
          <mxGeometry x="360" y="307" width="120" height="60" as="geometry" />
        </mxCell>
        <mxCell id="n3wySZi7lV5pkM7l6iqw-4" value="B11" style="rounded=0;whiteSpace=wrap;html=1;fillColor=#f8cecc;strokeColor=#b85450;" vertex="1" parent="1">
          <mxGeometry x="260" y="447" width="120" height="60" as="geometry" />
        </mxCell>
        <mxCell id="n3wySZi7lV5pkM7l6iqw-6" value="B12" style="rounded=0;whiteSpace=wrap;html=1;fillColor=#f5f5f5;fontColor=#333333;strokeColor=#666666;" vertex="1" parent="1">
          <mxGeometry x="450" y="447" width="120" height="60" as="geometry" />
        </mxCell>
        <mxCell id="n3wySZi7lV5pkM7l6iqw-13" style="edgeStyle=orthogonalEdgeStyle;rounded=0;orthogonalLoop=1;jettySize=auto;html=1;exitX=0.5;exitY=1;exitDx=0;exitDy=0;" edge="1" parent="1" source="n3wySZi7lV5pkM7l6iqw-8" target="n3wySZi7lV5pkM7l6iqw-9">
          <mxGeometry relative="1" as="geometry" />
        </mxCell>
        <mxCell id="n3wySZi7lV5pkM7l6iqw-8" value="C1" style="rounded=0;whiteSpace=wrap;html=1;" vertex="1" parent="1">
          <mxGeometry x="550" y="307" width="120" height="60" as="geometry" />
        </mxCell>
        <mxCell id="n3wySZi7lV5pkM7l6iqw-9" value="C11" style="rounded=0;whiteSpace=wrap;html=1;" vertex="1" parent="1">
          <mxGeometry x="620" y="447" width="120" height="60" as="geometry" />
        </mxCell>
        <mxCell id="n3wySZi7lV5pkM7l6iqw-10" value="A1" style="rounded=0;whiteSpace=wrap;html=1;" vertex="1" parent="1">
          <mxGeometry x="160" y="307" width="120" height="60" as="geometry" />
        </mxCell>
        <mxCell id="n3wySZi7lV5pkM7l6iqw-15" value="ZoneJS" style="text;html=1;align=center;verticalAlign=middle;resizable=0;points=[];autosize=1;strokeColor=#6c8ebf;fillColor=#dae8fc;fontStyle=1" vertex="1" parent="1">
          <mxGeometry x="240" y="127" width="60" height="30" as="geometry" />
        </mxCell>
        <mxCell id="n3wySZi7lV5pkM7l6iqw-16" value="Digest Cycle" style="text;html=1;align=center;verticalAlign=middle;resizable=0;points=[];autosize=1;strokeColor=#82b366;fillColor=#d5e8d4;fontStyle=1" vertex="1" parent="1">
          <mxGeometry x="55" y="125" width="90" height="30" as="geometry" />
        </mxCell>
        <mxCell id="n3wySZi7lV5pkM7l6iqw-17" value="" style="endArrow=classic;html=1;rounded=0;" edge="1" parent="1">
          <mxGeometry width="50" height="50" relative="1" as="geometry">
            <mxPoint x="90" y="187" as="sourcePoint" />
            <mxPoint x="90" y="497" as="targetPoint" />
          </mxGeometry>
        </mxCell>
        <mxCell id="n3wySZi7lV5pkM7l6iqw-18" value="Dirty Checking" style="text;html=1;align=center;verticalAlign=middle;resizable=0;points=[];autosize=1;strokeColor=#82b366;fillColor=#d5e8d4;fontStyle=1" vertex="1" parent="1">
          <mxGeometry x="100" y="175" width="100" height="30" as="geometry" />
        </mxCell>
        <mxCell id="n3wySZi7lV5pkM7l6iqw-19" value="prevValue === currValue" style="text;html=1;align=center;verticalAlign=middle;resizable=0;points=[];autosize=1;strokeColor=none;fillColor=none;fontStyle=1" vertex="1" parent="1">
          <mxGeometry x="100" y="205" width="150" height="30" as="geometry" />
        </mxCell>
        <mxCell id="n3wySZi7lV5pkM7l6iqw-20" value="prevValue = currValue" style="text;html=1;align=center;verticalAlign=middle;resizable=0;points=[];autosize=1;strokeColor=none;fillColor=none;fontStyle=1" vertex="1" parent="1">
          <mxGeometry x="100" y="235" width="140" height="30" as="geometry" />
        </mxCell>
        <mxCell id="n3wySZi7lV5pkM7l6iqw-21" value="Default ChangeDetectionStrategy" style="text;html=1;align=center;verticalAlign=middle;resizable=0;points=[];autosize=1;strokeColor=#9673a6;fillColor=#e1d5e7;fontStyle=1" vertex="1" parent="1">
          <mxGeometry x="30" y="90" width="200" height="30" as="geometry" />
        </mxCell>
        <mxCell id="n3wySZi7lV5pkM7l6iqw-22" value="onPush ChangeDetectionStrategy" style="text;html=1;align=center;verticalAlign=middle;resizable=0;points=[];autosize=1;strokeColor=#9673a6;fillColor=#e1d5e7;fontStyle=1" vertex="1" parent="1">
          <mxGeometry x="325" y="347" width="200" height="30" as="geometry" />
        </mxCell>
        <mxCell id="n3wySZi7lV5pkM7l6iqw-23" value="Angular Internals" style="text;strokeColor=none;fillColor=none;html=1;fontSize=24;fontStyle=1;verticalAlign=middle;align=center;" vertex="1" parent="1">
          <mxGeometry x="370" y="40" width="100" height="40" as="geometry" />
        </mxCell>
      </root>
    </mxGraphModel>
  </diagram>
</mxfile>
